<svg xmlns="http://www.w3.org/2000/svg" width="56.97" height="56.938" viewBox="0 0 56.97 56.938">
  <defs>
    <style>
      .cls-1 {
        fill: #fff;
        fill-rule: evenodd;
        opacity: 0.9;
      }
    </style>
  </defs>
  <path class="cls-1" d="M2046.88,433.316a5.672,5.672,0,0,0,4.98-2.934l10.19-18.484a2.838,2.838,0,0,0-2.48-4.216h-42.12l-2.68-5.7h-9.31v5.7h5.7L2021.4,429.3l-3.84,6.95a5.7,5.7,0,0,0,4.98,8.459h34.16v-5.7h-34.16l3.13-5.7h21.21Zm-26.73-19.937h34.58l-7.85,14.241H2026.9Zm2.39,34.178a5.7,5.7,0,1,0,5.69,5.7A5.684,5.684,0,0,0,2022.54,447.557Zm28.46,0a5.7,5.7,0,1,0,5.7,5.7A5.684,5.684,0,0,0,2051,447.557Z" transform="translate(-2005.47 -402)"/>
</svg>
