<svg xmlns="http://www.w3.org/2000/svg" viewBox="0 0 417 445.04"><path d="M245.5,29.54c-18.92-15-36.05-16.74-43-17C161,11,131.6,50.68,127.56,56.17c-.92,1.24-1.61,2.22-2.06,2.87-16.65,23.77-19.68,49.13-25.5,100-5.57,48.62-2.44,79.78-23.83,94.5a42.56,42.56,0,0,1-20.67,7,203.18,203.18,0,0,0,105,32A48.31,48.31,0,0,1,154,312c-9.49,15.65-25.78,20.48-40.5,26C96,344.6,59,358.46,37.5,381c-8.83,9.26-19.68,24.84-25,51.5h392c-5.38-29-17.11-45.45-26.5-55-36.81-37.42-94.26-26.32-115-66a57.38,57.38,0,0,1-6-19.5c14.91.69,42.4-.23,71.5-15a139.12,139.12,0,0,0,31-21.5c-6.66.51-15.73.05-23.33-5.33-15-10.64-14-33.22-14.17-91.67-.17-53.15-1.15-67.82-9-86.5-4.47-10.64-13-30.49-32-39.5C267.32,26.07,253.49,27.72,245.5,29.54Z" fill="none" stroke="#000" stroke-linecap="round" stroke-linejoin="round" stroke-width="25"/></svg>