<?xml version="1.0" encoding="utf-8"?><svg viewBox="0 0 429 458.03" xmlns="http://www.w3.org/2000/svg" xmlns:xlink="http://www.w3.org/1999/xlink"><style>:root>svg{display:none}:root>svg:target{display:block}</style><svg viewBox="0 0 122.54 226" id="arrow" xmlns="http://www.w3.org/2000/svg"><path d="M9 9l104.54 102.5L9 217" fill="none" stroke="#000" stroke-linecap="round" stroke-linejoin="round" stroke-width="18"/></svg><svg viewBox="0 0 15.58 15.18" id="arrow-back" xmlns="http://www.w3.org/2000/svg"><path d="M14.58 6.59H3.41l4.88-4.88a1 1 0 000-1.42 1 1 0 00-1.41 0L.29 6.88a1 1 0 000 1.41l6.59 6.59a1 1 0 001.41-1.41L3.41 8.59h11.17a1 1 0 100-2z"/></svg><svg viewBox="0 0 56.97 56.938" id="cart" xmlns="http://www.w3.org/2000/svg"><defs><style>.ccls-1{fill:#fff;fill-rule:evenodd;opacity:.9}</style></defs><path class="ccls-1" d="M41.41 31.316a5.672 5.672 0 004.98-2.934L56.58 9.898a2.838 2.838 0 00-2.48-4.216H11.98L9.3-.018H-.01v5.7h5.7L15.93 27.3l-3.84 6.95a5.7 5.7 0 004.98 8.459h34.16v-5.7H17.07l3.13-5.7h21.21zM14.68 11.379h34.58L41.41 25.62H21.43zm2.39 34.178a5.7 5.7 0 105.69 5.7 5.684 5.684 0 00-5.69-5.7zm28.46 0a5.7 5.7 0 105.7 5.7 5.684 5.684 0 00-5.7-5.7z"/></svg><svg viewBox="0 0 429 458.03" id="man" xmlns="http://www.w3.org/2000/svg"><path d="M217.5 12.56c-9.13-.2-38.41-.82-63 17-40.57 29.39-39.45 88-38.67 127 .51 25.22 1.89 66.07 30 102.66a137.71 137.71 0 0025.66 25.53c3.07 4.92 3.89 9.17 3.51 12.81-2.11 20.23-41.57 22.5-88.91 53.44-11.79 7.7-28 18.51-43.59 37.56a164.6 164.6 0 00-30 57h404c-2-13.73-7.29-35.34-22.93-55.53-5.15-6.66-14.08-16.58-38.07-31.44-58.15-36-102.23-37.58-105-59.5-.37-2.94-.21-7.86 4-14.5a134.11 134.11 0 0028-26c27.62-34.34 30-73.06 31.33-100.67 2.14-44.48 4.47-92.8-29.33-122.33-25.31-22.15-58.41-22.85-67-23.03z" fill="none" stroke="#000" stroke-linecap="round" stroke-linejoin="round" stroke-width="25"/></svg><svg viewBox="0 0 17.05 17.06" id="search" xmlns="http://www.w3.org/2000/svg"><path d="M12.5 11h-.79l-.28-.27a6.52 6.52 0 10-.7.7l.27.28v.79l4.25 4.25a1.05 1.05 0 001.49-1.49zm-6 0A4.5 4.5 0 1111 6.5 4.49 4.49 0 016.5 11z"/></svg><svg viewBox="0 0 417 445.04" id="woman" xmlns="http://www.w3.org/2000/svg"><path d="M245.5 29.54c-18.92-15-36.05-16.74-43-17C161 11 131.6 50.68 127.56 56.17c-.92 1.24-1.61 2.22-2.06 2.87-16.65 23.77-19.68 49.13-25.5 100-5.57 48.62-2.44 79.78-23.83 94.5a42.56 42.56 0 01-20.67 7 203.18 203.18 0 00105 32A48.31 48.31 0 01154 312c-9.49 15.65-25.78 20.48-40.5 26-17.5 6.6-54.5 20.46-76 43-8.83 9.26-19.68 24.84-25 51.5h392c-5.38-29-17.11-45.45-26.5-55-36.81-37.42-94.26-26.32-115-66a57.38 57.38 0 01-6-19.5c14.91.69 42.4-.23 71.5-15a139.12 139.12 0 0031-21.5c-6.66.51-15.73.05-23.33-5.33-15-10.64-14-33.22-14.17-91.67-.17-53.15-1.15-67.82-9-86.5-4.47-10.64-13-30.49-32-39.5-13.68-6.43-27.51-4.78-35.5-2.96z" fill="none" stroke="#000" stroke-linecap="round" stroke-linejoin="round" stroke-width="25"/></svg></svg>